<?xml version="1.0" standalone="no"?><!DOCTYPE svg PUBLIC "-//W3C//DTD SVG 1.1//EN" "http://www.w3.org/Graphics/SVG/1.1/DTD/svg11.dtd"><svg t="1616635518210" class="icon" viewBox="0 0 1024 1024" version="1.1" xmlns="http://www.w3.org/2000/svg" p-id="3115" xmlns:xlink="http://www.w3.org/1999/xlink" width="200" height="200"><defs><style type="text/css"></style></defs><path d="M869.2 844.1H154.8c-10.4 0-18.8-8.4-18.8-18.8s8.4-18.8 18.8-18.8h12.5v-564c0-34.6 28.1-62.7 62.7-62.7h313.3c34.6 0 62.7 28.1 62.7 62.7v125.3h188c34.6 0 62.7 28.1 62.7 62.7v376h12.5c10.4 0 18.8 8.4 18.8 18.8s-8.4 18.8-18.8 18.8zM342.8 298.9h-87.7v87.7h87.7v-87.7z m0 178.6h-87.7v87.7h87.7v-87.7z m0 178.6h-87.7v87.7h87.7v-87.7z m175.5-357.2h-87.7v87.7h87.7v-87.7z m0 178.6h-87.7v87.7h87.7v-87.7z m0 178.6h-87.7v87.7h87.7v-87.7z m263.2-175.4h-87.7v87.7h87.7v-87.7z m0 175.4h-87.7v87.7h87.7v-87.7z" fill="#515151" p-id="3116"></path></svg>