<?xml version="1.0" standalone="no"?><!DOCTYPE svg PUBLIC "-//W3C//DTD SVG 1.1//EN" "http://www.w3.org/Graphics/SVG/1.1/DTD/svg11.dtd"><svg t="1620474200769" class="icon" viewBox="0 0 1024 1024" version="1.1" xmlns="http://www.w3.org/2000/svg" p-id="1958" xmlns:xlink="http://www.w3.org/1999/xlink" width="400" height="400"><defs><style type="text/css"></style></defs><path d="M593.688 222H334.5c-40.042 0-72.5 32.458-72.5 72.5V802" fill="#4988FD" p-id="1959"></path><path d="M292 802h-60V294.5C232 237.982 277.982 192 334.5 192h259.188v60H334.5c-23.434 0-42.5 19.066-42.5 42.5V802z" fill="#4988FD" p-id="1960"></path><path d="M328 222h259.188c40.042 0 72.5 32.458 72.5 72.5v504.29H259.622" fill="#4988FD" p-id="1961"></path><path d="M689.688 828.79H259.622v-60h370.066V294.5c0-23.434-19.064-42.5-42.5-42.5H328V192h259.188c56.52 0 102.5 45.982 102.5 102.5v534.29z" fill="#4988FD" p-id="1962"></path><path d="M590 512h152c37.554 0 68 30.446 68 68v252H522V580c0-37.554 30.446-68 68-68z" fill="#4988FD" p-id="1963"></path><path d="M750 832h-168c-33.084 0-60-26.916-60-60v-192c0-37.496 30.504-68 68-68h152c37.496 0 68 30.504 68 68v192c0 33.084-26.916 60-60 60z m-160-260c-4.412 0-8 3.588-8 8v192h168a0.26 0.26 0 0 0 0.038-0.002L750 580c0-4.412-3.588-8-8-8h-152z" fill="#DFECFD" p-id="1964"></path><path d="M522 643h288v60H522z" fill="#DFECFD" p-id="1965"></path><path d="M636 512h60v290h-60zM368 332h60a12 12 0 0 1 12 12v60a12 12 0 0 1-12 12h-60a12 12 0 0 1-12-12v-60a12 12 0 0 1 12-12zM368 476h60a12 12 0 0 1 12 12v60a12 12 0 0 1-12 12h-60a12 12 0 0 1-12-12v-60a12 12 0 0 1 12-12zM368 620h60a12 12 0 0 1 12 12v60a12 12 0 0 1-12 12h-60a12 12 0 0 1-12-12v-60a12 12 0 0 1 12-12zM492 332h60a12 12 0 0 1 12 12v60a12 12 0 0 1-12 12h-60a12 12 0 0 1-12-12v-60a12 12 0 0 1 12-12z" fill="#DFECFD" p-id="1966"></path><path d="M192 772h640v60H192z" fill="#4988FD" p-id="1967"></path></svg>